<?xml version="1.0" encoding="utf-8"?>
<!-- Generator: Adobe Illustrator 24.0.1, SVG Export Plug-In . SVG Version: 6.00 Build 0)  -->
<svg version="1.1" id="Layer_1" xmlns="http://www.w3.org/2000/svg" xmlns:xlink="http://www.w3.org/1999/xlink" x="0px" y="0px"
	 viewBox="0 0 2430.77 338.74" style="enable-background:new 0 0 2430.77 338.74;" xml:space="preserve">
<style type="text/css">
	.st0{fill:#6D6E71;}
</style>
<g>
	<path d="M36.77,256.04V52.98h86.09c9.34,0,17.97,1.96,25.88,5.86c7.91,3.91,14.73,9.06,20.45,15.44
		c5.72,6.39,10.2,13.63,13.44,21.74c3.24,8.11,4.86,16.26,4.86,24.45c0,8.58-1.53,16.92-4.58,25.02
		c-3.05,8.11-7.34,15.3-12.87,21.59c-5.53,6.29-12.2,11.35-20.02,15.16c-7.82,3.82-16.4,5.72-25.74,5.72H76.24v68.07H36.77z
		 M76.24,153.37H122c7.24,0,13.3-2.95,18.16-8.87c4.86-5.91,7.29-13.92,7.29-24.02c0-5.15-0.76-9.77-2.29-13.87
		c-1.53-4.1-3.53-7.58-6.01-10.44c-2.48-2.86-5.39-5-8.72-6.44c-3.34-1.43-6.72-2.15-10.15-2.15H76.24V153.37z"/>
	<path d="M254.41,125.91v130.13h-39.47V52.98h30.6l105.82,133.28V53.27h39.47v202.77H358.8L254.41,125.91z"/>
	<path d="M574.16,233.16c-16.21,16.21-35.08,24.31-56.63,24.31c-13.35,0-25.88-2.67-37.61-8.01c-11.73-5.33-21.93-12.68-30.6-22.02
		c-8.68-9.34-15.54-20.35-20.59-33.03c-5.05-12.68-7.58-26.36-7.58-41.04c0-13.92,2.52-27.03,7.58-39.33
		c5.05-12.3,12.01-23.07,20.88-32.32c8.87-9.25,19.31-16.59,31.32-22.02c12.01-5.43,25.07-8.15,39.18-8.15
		c19.06,0,35.42,4,49.05,12.01c13.63,8.01,23.88,18.78,30.74,32.32l-29.46,21.74c-5.15-10.1-12.35-17.83-21.59-23.17
		c-9.25-5.34-19.31-8.01-30.17-8.01c-8.58,0-16.45,1.81-23.6,5.43c-7.15,3.62-13.25,8.58-18.3,14.87
		c-5.05,6.29-8.96,13.54-11.73,21.74c-2.77,8.2-4.15,16.87-4.15,26.03c0,9.54,1.52,18.45,4.58,26.74
		c3.05,8.29,7.24,15.49,12.58,21.59c5.34,6.1,11.68,10.92,19.02,14.44c7.34,3.53,15.3,5.29,23.88,5.29
		c19.64,0,37.37-9.25,53.2-27.74v-14.3h-40.9v-28.89h73.5v104.39h-32.6V233.16z"/>
	<path class="st0" d="M713.43,256.04V52.98h68.93c16.2,0,30.36,2.67,42.47,8.01c12.11,5.34,22.21,12.58,30.32,21.74
		c8.1,9.15,14.2,19.88,18.3,32.17c4.1,12.3,6.15,25.41,6.15,39.33c0,15.44-2.29,29.41-6.86,41.9
		c-4.58,12.49-11.11,23.17-19.59,32.03c-8.49,8.87-18.69,15.73-30.6,20.59c-11.92,4.86-25.31,7.29-40.18,7.29H713.43z
		 M859.58,154.22c0-12.2-1.72-23.4-5.15-33.6c-3.43-10.2-8.44-19.02-15.02-26.46s-14.64-13.2-24.17-17.3
		c-9.54-4.1-20.5-6.15-32.89-6.15h-48.91v167.6h48.91c12.58,0,23.69-2.15,33.32-6.44c9.63-4.29,17.68-10.2,24.17-17.73
		c6.48-7.53,11.39-16.4,14.73-26.6C857.91,177.35,859.58,166.24,859.58,154.22z"/>
	<path class="st0" d="M913.92,75.86v-28.6h19.45v28.6H913.92z M913.92,256.04V107.03h19.45v149.01H913.92z"/>
	<path class="st0" d="M1036.04,258.04c-10.3,0-19.69-2.15-28.17-6.43c-8.49-4.29-15.83-9.96-22.02-17.02
		c-6.2-7.05-11.01-15.16-14.44-24.31c-3.43-9.15-5.15-18.59-5.15-28.31c0-10.3,1.67-20.16,5-29.6c3.33-9.44,8.05-17.68,14.16-24.74
		c6.1-7.05,13.39-12.68,21.88-16.87c8.48-4.19,17.87-6.29,28.17-6.29c12.77,0,23.83,3.2,33.18,9.58
		c9.34,6.39,17.35,14.44,24.02,24.17v-31.17h17.45v149.58c0,10.3-1.96,19.4-5.86,27.31c-3.91,7.91-9.15,14.54-15.73,19.88
		c-6.58,5.33-14.3,9.34-23.17,12.01c-8.87,2.67-18.26,4-28.17,4c-17.16,0-30.99-3.05-41.47-9.15c-10.49-6.1-18.97-14.3-25.45-24.6
		l12.01-9.44c5.91,9.53,13.73,16.54,23.45,21.02c9.72,4.48,20.21,6.72,31.46,6.72c7.24,0,14.11-1,20.59-3
		c6.48-2,12.16-4.96,17.02-8.87c4.86-3.91,8.72-8.87,11.58-14.87s4.29-13.01,4.29-21.02v-29.46c-5.72,9.54-13.54,17.07-23.45,22.59
		C1057.29,255.28,1046.9,258.04,1036.04,258.04z M1041.47,241.74c5.72,0,11.34-1.05,16.87-3.15c5.53-2.1,10.53-4.91,15.01-8.44
		c4.48-3.53,8.25-7.48,11.3-11.87c3.05-4.38,5.05-8.87,6.01-13.44V158.8c-2.1-5.34-4.96-10.3-8.58-14.87
		c-3.62-4.58-7.72-8.48-12.3-11.73c-4.58-3.24-9.49-5.81-14.73-7.72c-5.25-1.9-10.54-2.86-15.87-2.86c-8.39,0-15.87,1.77-22.45,5.29
		c-6.58,3.53-12.15,8.15-16.73,13.87c-4.58,5.72-8.06,12.2-10.44,19.45c-2.39,7.25-3.58,14.59-3.58,22.02
		c0,8.01,1.43,15.64,4.29,22.88c2.86,7.25,6.81,13.58,11.87,19.02c5.05,5.43,10.91,9.72,17.59,12.87
		C1026.41,240.17,1033.65,241.74,1041.47,241.74z"/>
	<path class="st0" d="M1153.01,75.86v-28.6h19.45v28.6H1153.01z M1153.01,256.04V107.03h19.45v149.01H1153.01z"/>
	<path class="st0" d="M1286.85,248.89c-1.14,0.57-2.81,1.34-5,2.29c-2.2,0.96-4.72,1.91-7.58,2.86c-2.86,0.96-6.1,1.81-9.72,2.57
		c-3.62,0.76-7.44,1.14-11.44,1.14c-4.2,0-8.2-0.57-12.01-1.72c-3.82-1.14-7.15-2.91-10.01-5.29c-2.86-2.38-5.15-5.38-6.86-9.01
		c-1.72-3.62-2.57-7.82-2.57-12.58V122.48h-20.59v-15.44h20.59V56.7h19.45v50.34h34.32v15.44h-34.32v101.24
		c0.38,5.53,2.33,9.58,5.86,12.15c3.53,2.57,7.58,3.86,12.15,3.86c5.53,0,10.39-0.9,14.59-2.72c4.19-1.81,6.87-3.1,8.01-3.86
		L1286.85,248.89z"/>
	<path class="st0" d="M1348.63,258.9c-7.06,0-13.58-1.19-19.59-3.58s-11.25-5.67-15.73-9.87c-4.48-4.19-7.96-9.1-10.44-14.73
		c-2.48-5.62-3.72-11.68-3.72-18.16c0-6.48,1.52-12.49,4.58-18.02c3.05-5.53,7.34-10.3,12.87-14.3c5.53-4,12.11-7.1,19.73-9.29
		c7.62-2.19,16.02-3.29,25.17-3.29c7.62,0,15.35,0.67,23.17,2c7.82,1.34,14.77,3.24,20.88,5.72v-13.44
		c0-13.16-3.72-23.59-11.15-31.32c-7.44-7.72-17.73-11.58-30.89-11.58c-7.63,0-15.44,1.53-23.45,4.58
		c-8.01,3.05-16.11,7.44-24.31,13.16l-6.86-12.87c19.26-12.96,37.94-19.45,56.06-19.45c18.68,0,33.36,5.25,44.04,15.73
		c10.68,10.49,16.02,24.98,16.02,43.47v67.21c0,5.34,2.38,8.01,7.15,8.01v17.16c-3.24,0.57-5.72,0.86-7.44,0.86
		c-4.96,0-8.82-1.24-11.58-3.72c-2.77-2.47-4.25-5.91-4.43-10.29l-0.57-11.73c-6.86,8.96-15.49,15.83-25.88,20.59
		C1371.84,256.51,1360.64,258.9,1348.63,258.9z M1353.2,244.03c10.1,0,19.4-1.9,27.88-5.72c8.48-3.81,14.92-8.87,19.3-15.16
		c1.72-1.72,3-3.58,3.86-5.58c0.86-2,1.29-3.86,1.29-5.58v-24.31c-6.48-2.47-13.21-4.38-20.16-5.72c-6.96-1.33-14.06-2-21.31-2
		c-13.73,0-24.88,2.86-33.46,8.58c-8.58,5.72-12.87,13.25-12.87,22.59c0,4.58,0.9,8.87,2.72,12.87c1.81,4,4.29,7.49,7.44,10.44
		c3.15,2.96,6.91,5.29,11.3,7.01C1343.57,243.17,1348.24,244.03,1353.2,244.03z"/>
	<path class="st0" d="M1467.89,47.26h19.45v175.03c0,5.53,1.52,9.87,4.58,13.01c3.05,3.15,7.34,4.72,12.87,4.72
		c2.1,0,4.58-0.29,7.44-0.86c2.86-0.57,5.53-1.33,8.01-2.29l3.43,15.73c-3.62,1.53-8.06,2.77-13.3,3.72
		c-5.25,0.95-9.77,1.43-13.58,1.43c-8.96,0-16.02-2.53-21.16-7.58c-5.15-5.05-7.72-12.16-7.72-21.31V47.26z"/>
	<path class="st0" d="M1792.78,256.04V89.3l-74.07,128.99h-11.73L1632.9,89.3v166.74h-20.02V52.98h20.59l79.22,139l79.79-139h20.31
		v203.06H1792.78z"/>
	<path class="st0" d="M1922.05,258.9c-10.87,0-20.83-2.05-29.89-6.15c-9.06-4.1-16.92-9.72-23.59-16.87
		c-6.68-7.15-11.87-15.39-15.59-24.74c-3.72-9.34-5.58-19.35-5.58-30.03c0-10.48,1.86-20.35,5.58-29.6
		c3.72-9.25,8.87-17.35,15.44-24.31c6.58-6.96,14.44-12.49,23.59-16.59c9.15-4.1,19.06-6.15,29.74-6.15
		c10.87,0,20.83,2.05,29.89,6.15c9.05,4.1,16.82,9.68,23.31,16.73c6.48,7.06,11.53,15.16,15.16,24.31
		c3.62,9.15,5.43,18.88,5.43,29.17c0,1.53,0,3.05,0,4.58c0,1.53-0.1,2.57-0.29,3.15h-127.56c0.57,8.01,2.43,15.4,5.58,22.17
		c3.15,6.77,7.19,12.63,12.16,17.59c4.96,4.96,10.63,8.82,17.02,11.58c6.39,2.77,13.2,4.15,20.45,4.15c4.76,0,9.53-0.67,14.3-2
		c4.76-1.33,9.15-3.15,13.16-5.43c4-2.29,7.62-5.1,10.87-8.44c3.24-3.33,5.72-7.01,7.44-11.01l16.87,4.58
		c-2.29,5.53-5.53,10.54-9.72,15.01c-4.2,4.48-9.06,8.39-14.59,11.73c-5.53,3.34-11.63,5.91-18.3,7.72
		C1936.25,257.99,1929.3,258.9,1922.05,258.9z M1976.96,173.67c-0.57-8.01-2.43-15.3-5.58-21.88c-3.15-6.58-7.15-12.25-12.01-17.02
		c-4.86-4.76-10.49-8.48-16.87-11.15c-6.39-2.67-13.21-4-20.45-4c-7.25,0-14.11,1.34-20.59,4c-6.48,2.67-12.16,6.39-17.02,11.15
		c-4.86,4.77-8.77,10.49-11.73,17.16c-2.96,6.68-4.72,13.92-5.29,21.74H1976.96z"/>
	<path class="st0" d="M2086.79,258.9c-10.3,0-19.83-2.15-28.6-6.44c-8.77-4.29-16.3-9.96-22.59-17.02
		c-6.29-7.05-11.2-15.2-14.73-24.45c-3.53-9.25-5.29-18.92-5.29-29.03c0-10.48,1.72-20.45,5.15-29.89s8.15-17.68,14.16-24.74
		c6.01-7.05,13.16-12.63,21.45-16.73c8.29-4.1,17.4-6.15,27.31-6.15c12.58,0,23.74,3.29,33.46,9.87
		c9.72,6.58,17.35,14.54,22.88,23.88V47.26h19.45v183.61c0,5.34,2.29,8.01,6.86,8.01v17.16c-2.86,0.57-5.15,0.86-6.86,0.86
		c-4.58,0-8.58-1.47-12.01-4.43c-3.43-2.95-5.15-6.53-5.15-10.72v-14.59c-5.91,9.72-13.92,17.45-24.02,23.17
		C2108.14,256.04,2097.65,258.9,2086.79,258.9z M2091.08,241.74c4.76,0,9.87-0.95,15.3-2.86c5.43-1.9,10.53-4.53,15.3-7.86
		c4.76-3.33,8.82-7.24,12.16-11.73c3.33-4.48,5.38-9.29,6.15-14.44V158.8c-1.91-5.15-4.67-9.96-8.29-14.44
		c-3.62-4.48-7.77-8.44-12.44-11.87c-4.67-3.43-9.68-6.1-15.02-8.01c-5.34-1.9-10.58-2.86-15.73-2.86c-8.01,0-15.26,1.72-21.74,5.15
		c-6.48,3.43-12.06,7.96-16.73,13.58c-4.67,5.63-8.25,12.06-10.73,19.31c-2.48,7.25-3.72,14.68-3.72,22.31
		c0,8.01,1.43,15.64,4.29,22.88c2.86,7.25,6.77,13.59,11.73,19.02c4.96,5.43,10.82,9.77,17.59,13.01
		C2075.96,240.12,2083.26,241.74,2091.08,241.74z"/>
	<path class="st0" d="M2203.47,75.86v-28.6h19.45v28.6H2203.47z M2203.47,256.04V107.03h19.45v149.01H2203.47z"/>
	<path class="st0" d="M2303.28,258.9c-7.06,0-13.58-1.19-19.59-3.58s-11.25-5.67-15.73-9.87c-4.48-4.19-7.96-9.1-10.44-14.73
		c-2.48-5.62-3.72-11.68-3.72-18.16c0-6.48,1.52-12.49,4.58-18.02c3.05-5.53,7.34-10.3,12.87-14.3c5.53-4,12.11-7.1,19.73-9.29
		c7.62-2.19,16.02-3.29,25.17-3.29c7.62,0,15.35,0.67,23.17,2c7.82,1.34,14.77,3.24,20.88,5.72v-13.44
		c0-13.16-3.72-23.59-11.15-31.32c-7.44-7.72-17.73-11.58-30.89-11.58c-7.63,0-15.44,1.53-23.45,4.58
		c-8.01,3.05-16.11,7.44-24.31,13.16l-6.86-12.87c19.26-12.96,37.94-19.45,56.06-19.45c18.68,0,33.36,5.25,44.04,15.73
		c10.68,10.49,16.02,24.98,16.02,43.47v67.21c0,5.34,2.38,8.01,7.15,8.01v17.16c-3.24,0.57-5.72,0.86-7.44,0.86
		c-4.96,0-8.82-1.24-11.58-3.72c-2.77-2.47-4.25-5.91-4.43-10.29l-0.57-11.73c-6.86,8.96-15.49,15.83-25.88,20.59
		C2326.49,256.51,2315.29,258.9,2303.28,258.9z M2307.86,244.03c10.1,0,19.4-1.9,27.88-5.72c8.48-3.81,14.92-8.87,19.3-15.16
		c1.72-1.72,3-3.58,3.86-5.58c0.86-2,1.29-3.86,1.29-5.58v-24.31c-6.48-2.47-13.21-4.38-20.16-5.72c-6.96-1.33-14.06-2-21.31-2
		c-13.73,0-24.88,2.86-33.46,8.58c-8.58,5.72-12.87,13.25-12.87,22.59c0,4.58,0.9,8.87,2.72,12.87c1.81,4,4.29,7.49,7.44,10.44
		c3.15,2.96,6.91,5.29,11.3,7.01C2298.23,243.17,2302.9,244.03,2307.86,244.03z"/>
</g>
</svg>
