<?xml version="1.0" encoding="utf-8"?>
<!-- Generator: Adobe Illustrator 24.0.1, SVG Export Plug-In . SVG Version: 6.00 Build 0)  -->
<svg version="1.1" xmlns="http://www.w3.org/2000/svg" xmlns:xlink="http://www.w3.org/1999/xlink" x="0px" y="0px"
	 viewBox="0 0 282.52 83.97" style="enable-background:new 0 0 282.52 83.97;" xml:space="preserve">
<style type="text/css">
	.st0{fill:#ED1C24;}
	.st1{fill:#010101;}
	.st2{display:none;}
	.st3{display:inline;fill:none;stroke:#000000;stroke-miterlimit:10;}
</style>
<g id="Logo">
	<path class="st0" d="M189.63,32.4c1.18,3.25,1.95,6.64,2.28,10.1l16.33-3.66c-1.23-5.1-3.27-10-6.04-14.49L189.63,32.4z"/>
	<path class="st1" d="M173.88,2.74c-5.13-1.52-10.38-2.17-15.57-2.01l0.26,5.61c3.94,0.7,7.85,1.99,11.59,3.93
		c0.39,0.2,0.78,0.41,1.16,0.63L173.88,2.74z"/>
	<path class="st0" d="M209.32,56.11l-17.94-2.32c0.61-3.21,0.82-6.45,0.65-9.65l16.56-3.72c0,0,1.09,3.59,1.2,8.15
		C209.88,52.54,209.32,56.11,209.32,56.11z"/>
	<path class="st1" d="M139.87,4.88c-9.82,4.28-18.33,11.74-23.83,21.84c5.48-9.96,14.57-16.73,24.79-19.54L139.87,4.88z"/>
	<path class="st1" d="M172.78,11.75c3.63,2.23,6.8,4.96,9.46,8.05l7.14-9.35c-2.08-1.53-4.31-2.93-6.69-4.15
		c-2.37-1.23-4.8-2.24-7.25-3.06L172.78,11.75z"/>
	<path class="st1" d="M142.43,6.78c4.71-1.09,9.62-1.34,14.5-0.69l-0.24-5.28c-5.26,0.33-10.43,1.51-15.31,3.44L142.43,6.78z"/>
	<path class="st1" d="M198.84,24.56l2.47-1.58c-2.86-4.32-6.43-8.23-10.63-11.55l-7.37,9.65c1.83,2.31,3.39,4.82,4.66,7.44
		L198.84,24.56z"/>
	<g>
		<path class="st1" d="M159.78,47.38c0.44-1.21,0.38-2.51-0.16-3.67c-0.54-1.16-1.51-2.04-2.71-2.48c-0.63-0.23-1.29-0.32-1.95-0.28
			c-0.59,0.04-1.18,0.19-1.73,0.44c-2.4,1.12-3.44,3.99-2.32,6.39c1.12,2.4,3.99,3.44,6.39,2.32
			C158.46,49.55,159.34,48.59,159.78,47.38z"/>
		<path class="st1" d="M199.21,25.2l-41.1,15c1.23,0.63,2.23,1.62,2.82,2.89c0.59,1.27,0.74,2.66,0.43,4.01L199.21,25.2z"/>
	</g>
	<g>
		<path d="M9.43,49l6.48-34.46l14.05,0.06c1.52,0.01,2.87,0.35,4.04,1.01c1.17,0.67,2.11,1.55,2.84,2.64
			c0.73,1.09,1.23,2.32,1.5,3.7c0.27,1.38,0.27,2.76,0.01,4.15c-0.27,1.46-0.79,2.87-1.55,4.24c-0.76,1.37-1.69,2.59-2.79,3.66
			c-1.1,1.06-2.35,1.92-3.75,2.56c-1.4,0.64-2.86,0.96-4.38,0.95l-7.84-0.04l-2.17,11.55L9.43,49z M19.15,31.6l7.47,0.03
			c1.18,0.01,2.26-0.49,3.25-1.49c0.98-1,1.63-2.36,1.96-4.07c0.16-0.87,0.19-1.66,0.07-2.36c-0.12-0.7-0.33-1.29-0.65-1.78
			c-0.31-0.49-0.72-0.85-1.22-1.1c-0.5-0.25-1.03-0.37-1.59-0.37l-7.19-0.03L19.15,31.6z"/>
		<path d="M49.11,27.07l-4.16,22.09l-6.44-0.03L45,14.67l4.99,0.02l13.02,22.7l4.25-22.57l6.44,0.03l-6.47,34.41L62,49.24
			L49.11,27.07z"/>
		<path d="M97.87,45.51c-3.16,2.74-6.5,4.1-10.02,4.08c-2.18-0.01-4.14-0.47-5.88-1.39c-1.74-0.91-3.17-2.17-4.29-3.76
			c-1.12-1.59-1.89-3.47-2.31-5.62c-0.42-2.16-0.4-4.48,0.07-6.97c0.44-2.36,1.28-4.59,2.49-6.67c1.22-2.08,2.7-3.91,4.44-5.47
			c1.74-1.56,3.68-2.8,5.81-3.71c2.13-0.91,4.35-1.37,6.66-1.35c3.11,0.01,5.65,0.71,7.62,2.07c1.97,1.37,3.3,3.21,3.99,5.51
			l-5.5,3.67c-0.52-1.72-1.45-3.03-2.78-3.95c-1.34-0.91-2.9-1.37-4.67-1.38c-1.4-0.01-2.74,0.3-4.02,0.91
			c-1.28,0.61-2.44,1.45-3.46,2.51c-1.03,1.06-1.9,2.29-2.61,3.68c-0.71,1.39-1.22,2.86-1.51,4.41c-0.3,1.62-0.34,3.13-0.11,4.54
			c0.23,1.41,0.69,2.63,1.36,3.67c0.68,1.04,1.56,1.86,2.64,2.47c1.08,0.6,2.33,0.91,3.73,0.92c3.2,0.01,6.39-1.54,9.57-4.67
			l0.46-2.43l-6.68-0.03l0.92-4.9l12,0.05l-3.33,17.72l-5.32-0.02L97.87,45.51z"/>
	</g>
	<path class="st0" d="M23.12,82.8l4.66-20.06L16.01,82.8h-2.8l-2.45-20.06L6.14,82.8H1.73l5.77-24.99H15l1.61,17.4l10.01-17.4h7.25
		L28.09,82.8H23.12z"/>
	<path class="st0" d="M43.87,83.43c-1.59,0-3.01-0.26-4.27-0.77c-1.26-0.51-2.33-1.23-3.2-2.15c-0.88-0.92-1.55-2.02-2.01-3.31
		c-0.47-1.28-0.7-2.69-0.7-4.23c0-2.38,0.47-4.54,1.42-6.49c0.94-1.95,2.19-3.62,3.73-5c1.54-1.39,3.29-2.46,5.25-3.22
		c1.96-0.76,3.96-1.14,5.98-1.14c1.54,0,2.93,0.24,4.17,0.72c1.24,0.48,2.29,1.16,3.15,2.03s1.52,1.93,1.98,3.17
		c0.46,1.24,0.68,2.6,0.68,4.09c0,2.24-0.45,4.35-1.35,6.32c-0.9,1.97-2.1,3.7-3.6,5.18c-1.5,1.48-3.23,2.65-5.16,3.52
		C47.99,83,45.97,83.43,43.87,83.43z M44.85,79.02c1.31,0,2.57-0.29,3.78-0.86c1.21-0.57,2.29-1.35,3.24-2.33
		c0.94-0.98,1.7-2.12,2.27-3.43C54.72,71.1,55,69.71,55,68.24c0-1.98-0.53-3.59-1.59-4.83c-1.06-1.24-2.6-1.85-4.6-1.85
		c-1.35,0-2.64,0.28-3.85,0.84c-1.21,0.56-2.28,1.33-3.2,2.31c-0.92,0.98-1.66,2.12-2.21,3.41s-0.82,2.68-0.82,4.15
		c0,0.98,0.13,1.88,0.4,2.7c0.27,0.82,0.67,1.53,1.19,2.13c0.53,0.61,1.17,1.08,1.93,1.42C43,78.85,43.87,79.02,44.85,79.02z"/>
	<path class="st0" d="M65.05,82.8l4.73-20.58h-7.74l1.02-4.41h20.44l-1.01,4.41h-7.77L69.95,82.8H65.05z"/>
	<path class="st0" d="M90.98,83.43c-1.59,0-3.01-0.26-4.27-0.77c-1.26-0.51-2.33-1.23-3.2-2.15c-0.88-0.92-1.55-2.02-2.01-3.31
		c-0.47-1.28-0.7-2.69-0.7-4.23c0-2.38,0.47-4.54,1.42-6.49c0.94-1.95,2.19-3.62,3.73-5c1.54-1.39,3.29-2.46,5.25-3.22
		c1.96-0.76,3.96-1.14,5.98-1.14c1.54,0,2.93,0.24,4.17,0.72c1.24,0.48,2.29,1.16,3.15,2.03s1.52,1.93,1.98,3.17
		c0.46,1.24,0.68,2.6,0.68,4.09c0,2.24-0.45,4.35-1.35,6.32s-2.1,3.7-3.6,5.18c-1.51,1.48-3.23,2.65-5.16,3.52
		C95.1,83,93.08,83.43,90.98,83.43z M91.96,79.02c1.31,0,2.57-0.29,3.78-0.86c1.21-0.57,2.29-1.35,3.24-2.33
		c0.94-0.98,1.7-2.12,2.28-3.43c0.57-1.31,0.86-2.69,0.86-4.17c0-1.98-0.53-3.59-1.59-4.83c-1.06-1.24-2.6-1.85-4.6-1.85
		c-1.35,0-2.64,0.28-3.85,0.84c-1.21,0.56-2.28,1.33-3.2,2.31c-0.92,0.98-1.66,2.12-2.21,3.41s-0.82,2.68-0.82,4.15
		c0,0.98,0.13,1.88,0.4,2.7c0.27,0.82,0.67,1.53,1.19,2.13c0.53,0.61,1.17,1.08,1.93,1.42C90.11,78.85,90.98,79.02,91.96,79.02z"/>
	<path class="st0" d="M125.07,82.8c-0.12-0.21-0.2-0.43-0.26-0.65c-0.06-0.22-0.09-0.5-0.09-0.82c0-0.28,0.04-0.64,0.1-1.08
		c0.07-0.44,0.14-0.91,0.21-1.4c0.07-0.49,0.14-0.98,0.21-1.47c0.07-0.49,0.11-0.93,0.11-1.33c0-0.91-0.21-1.66-0.61-2.26
		c-0.41-0.59-1.2-0.89-2.36-0.89h-8.05l-2.31,9.9h-4.94l5.81-24.99h12.88c1,0,1.98,0.08,2.94,0.23c0.96,0.15,1.8,0.43,2.54,0.84
		s1.33,0.97,1.79,1.7c0.46,0.72,0.68,1.66,0.68,2.8c0,0.98-0.16,1.9-0.47,2.75c-0.32,0.85-0.76,1.61-1.33,2.28
		c-0.57,0.67-1.25,1.23-2.03,1.7c-0.78,0.47-1.63,0.81-2.54,1.02c1.17,0.47,1.95,1.15,2.34,2.05c0.4,0.9,0.59,1.91,0.59,3.03
		c0,0.84-0.08,1.72-0.25,2.64c-0.16,0.92-0.24,1.76-0.24,2.5c0,0.56,0.13,1.05,0.38,1.47H125.07z M116.88,61.84l-1.68,7.17h8.96
		c1.26,0,2.31-0.4,3.15-1.19c0.84-0.79,1.26-1.87,1.26-3.22c0-1.05-0.32-1.77-0.96-2.17c-0.64-0.4-1.45-0.59-2.43-0.59H116.88z"/>
	<path class="st0" d="M152.58,65.27c0.02-0.12,0.03-0.22,0.03-0.31c0-0.09,0-0.19,0-0.28c0-0.68-0.15-1.24-0.44-1.7
		s-0.68-0.82-1.15-1.1c-0.48-0.28-1.02-0.48-1.63-0.59s-1.21-0.18-1.82-0.18c-0.58,0-1.25,0.04-2,0.12
		c-0.75,0.08-1.45,0.26-2.12,0.52c-0.67,0.27-1.22,0.67-1.68,1.19c-0.46,0.52-0.68,1.23-0.68,2.12c0,0.51,0.13,0.94,0.38,1.28
		s0.57,0.61,0.93,0.8c0.36,0.2,0.74,0.34,1.12,0.44c0.38,0.09,0.69,0.16,0.93,0.21c1.63,0.28,3.13,0.52,4.48,0.72
		s2.51,0.5,3.48,0.89c0.97,0.4,1.72,0.97,2.26,1.71c0.54,0.75,0.8,1.81,0.8,3.19c0,1.7-0.37,3.14-1.1,4.3
		c-0.73,1.17-1.7,2.11-2.89,2.82c-1.19,0.71-2.53,1.22-4.03,1.54c-1.49,0.31-3.01,0.47-4.55,0.47c-1.24,0-2.43-0.15-3.59-0.44
		s-2.18-0.75-3.06-1.38s-1.6-1.43-2.13-2.4c-0.54-0.97-0.8-2.13-0.8-3.48c0-0.19,0-0.38,0-0.58s0.02-0.39,0.07-0.58h4.45v0.25
		c0,0.89,0.18,1.62,0.54,2.21c0.36,0.58,0.84,1.05,1.45,1.4c0.61,0.35,1.29,0.6,2.06,0.75c0.77,0.15,1.56,0.23,2.38,0.23
		c0.56,0,1.22-0.04,1.99-0.12c0.77-0.08,1.51-0.27,2.22-0.58c0.71-0.3,1.32-0.74,1.82-1.31c0.5-0.57,0.75-1.34,0.75-2.29
		c0-0.61-0.21-1.08-0.61-1.43c-0.41-0.35-0.95-0.62-1.63-0.82c-0.68-0.2-1.45-0.36-2.31-0.47c-0.86-0.12-1.74-0.25-2.64-0.4
		c-0.9-0.15-1.78-0.35-2.64-0.6c-0.86-0.24-1.63-0.6-2.31-1.07c-0.68-0.47-1.22-1.07-1.63-1.8c-0.41-0.74-0.61-1.66-0.61-2.78
		c0-1.54,0.34-2.85,1.03-3.94c0.69-1.08,1.59-1.98,2.71-2.68c1.12-0.7,2.4-1.21,3.83-1.52c1.43-0.32,2.9-0.47,4.39-0.47
		c1.17,0,2.26,0.13,3.29,0.38c1.03,0.26,1.92,0.65,2.69,1.17c0.77,0.52,1.38,1.2,1.82,2.01c0.44,0.82,0.67,1.79,0.67,2.91
		c0,0.26-0.01,0.52-0.04,0.8c-0.02,0.28-0.06,0.57-0.11,0.88H152.58z"/>
	<path class="st0" d="M156.47,82.8l5.81-24.99h14.35c1.12,0,2.07,0.19,2.83,0.58c0.77,0.39,1.4,0.89,1.89,1.52
		c0.49,0.63,0.84,1.35,1.07,2.17c0.22,0.82,0.33,1.65,0.33,2.49c0,1.45-0.29,2.78-0.88,3.99c-0.58,1.21-1.35,2.25-2.31,3.12
		c-0.96,0.86-2.04,1.53-3.25,2.01c-1.21,0.48-2.44,0.72-3.68,0.72h-9.2l-1.96,8.4H156.47z M166.23,62.01l-1.92,8.23h8.71
		c0.63,0,1.23-0.12,1.8-0.35c0.57-0.23,1.07-0.57,1.51-1.02c0.43-0.44,0.78-0.97,1.03-1.59c0.26-0.62,0.38-1.3,0.38-2.05
		c0-0.98-0.24-1.76-0.72-2.35c-0.48-0.58-1.21-0.88-2.19-0.88H166.23z"/>
	<g>
		<path class="st0" d="M193.39,83.43c-1.59,0-3.01-0.26-4.27-0.77c-1.26-0.51-2.33-1.23-3.2-2.15c-0.88-0.92-1.55-2.02-2.01-3.31
			c-0.47-1.28-0.7-2.69-0.7-4.23c0-2.38,0.47-4.54,1.42-6.49c0.95-1.95,2.19-3.62,3.73-5c1.54-1.39,3.29-2.46,5.25-3.22
			c1.96-0.76,3.96-1.14,5.99-1.14c1.54,0,2.93,0.24,4.17,0.72c1.24,0.48,2.29,1.16,3.15,2.03s1.52,1.93,1.98,3.17
			c0.46,1.24,0.68,2.6,0.68,4.09c0,2.24-0.45,4.35-1.35,6.32s-2.1,3.7-3.6,5.18c-1.5,1.48-3.23,2.65-5.16,3.52
			S195.49,83.43,193.39,83.43z M194.37,79.02c1.31,0,2.57-0.29,3.78-0.86c1.21-0.57,2.29-1.35,3.24-2.33
			c0.95-0.98,1.7-2.12,2.28-3.43c0.57-1.31,0.86-2.69,0.86-4.17c0-1.98-0.53-3.59-1.59-4.83c-1.06-1.24-2.6-1.85-4.6-1.85
			c-1.35,0-2.64,0.28-3.85,0.84c-1.21,0.56-2.28,1.33-3.2,2.31c-0.92,0.98-1.66,2.12-2.21,3.41c-0.55,1.29-0.82,2.68-0.82,4.15
			c0,0.98,0.13,1.88,0.4,2.7c0.27,0.82,0.67,1.53,1.19,2.13c0.53,0.61,1.17,1.08,1.92,1.42C192.52,78.85,193.39,79.02,194.37,79.02z
			"/>
	</g>
	<path class="st0" d="M227.48,82.8c-0.12-0.21-0.2-0.43-0.26-0.65c-0.06-0.22-0.09-0.5-0.09-0.82c0-0.28,0.04-0.64,0.1-1.08
		c0.07-0.44,0.14-0.91,0.21-1.4c0.07-0.49,0.14-0.98,0.21-1.47c0.07-0.49,0.11-0.93,0.11-1.33c0-0.91-0.21-1.66-0.61-2.26
		c-0.41-0.59-1.2-0.89-2.36-0.89h-8.05l-2.31,9.9h-4.94l5.81-24.99h12.88c1,0,1.98,0.08,2.94,0.23c0.96,0.15,1.8,0.43,2.54,0.84
		s1.33,0.97,1.79,1.7c0.46,0.72,0.68,1.66,0.68,2.8c0,0.98-0.16,1.9-0.47,2.75c-0.32,0.85-0.76,1.61-1.33,2.28
		c-0.57,0.67-1.25,1.23-2.03,1.7c-0.78,0.47-1.63,0.81-2.54,1.02c1.17,0.47,1.95,1.15,2.34,2.05c0.4,0.9,0.59,1.91,0.59,3.03
		c0,0.84-0.08,1.72-0.25,2.64c-0.16,0.92-0.24,1.76-0.24,2.5c0,0.56,0.13,1.05,0.38,1.47H227.48z M219.29,61.84l-1.68,7.17h8.96
		c1.26,0,2.31-0.4,3.15-1.19c0.84-0.79,1.26-1.87,1.26-3.22c0-1.05-0.32-1.77-0.96-2.17c-0.64-0.4-1.45-0.59-2.43-0.59H219.29z"/>
	<path class="st0" d="M240.61,82.8l4.73-20.58h-7.74l1.02-4.41h20.44l-1.01,4.41h-7.77l-4.76,20.58H240.61z"/>
	<path class="st0" d="M275.71,65.27c0.02-0.12,0.03-0.22,0.03-0.31c0-0.09,0-0.19,0-0.28c0-0.68-0.15-1.24-0.44-1.7
		s-0.68-0.82-1.15-1.1c-0.48-0.28-1.02-0.48-1.63-0.59s-1.21-0.18-1.82-0.18c-0.58,0-1.25,0.04-2,0.12
		c-0.75,0.08-1.45,0.26-2.12,0.52c-0.67,0.27-1.22,0.67-1.68,1.19c-0.46,0.52-0.68,1.23-0.68,2.12c0,0.51,0.13,0.94,0.38,1.28
		s0.57,0.61,0.93,0.8c0.36,0.2,0.74,0.34,1.12,0.44c0.38,0.09,0.69,0.16,0.93,0.21c1.63,0.28,3.13,0.52,4.48,0.72
		s2.51,0.5,3.48,0.89c0.97,0.4,1.72,0.97,2.26,1.71c0.54,0.75,0.8,1.81,0.8,3.19c0,1.7-0.37,3.14-1.1,4.3
		c-0.73,1.17-1.7,2.11-2.89,2.82c-1.19,0.71-2.53,1.22-4.03,1.54c-1.49,0.31-3.01,0.47-4.55,0.47c-1.24,0-2.43-0.15-3.59-0.44
		s-2.18-0.75-3.06-1.38s-1.6-1.43-2.13-2.4c-0.54-0.97-0.8-2.13-0.8-3.48c0-0.19,0-0.38,0-0.58s0.02-0.39,0.07-0.58h4.45v0.25
		c0,0.89,0.18,1.62,0.54,2.21c0.36,0.58,0.84,1.05,1.45,1.4c0.61,0.35,1.29,0.6,2.06,0.75c0.77,0.15,1.56,0.23,2.38,0.23
		c0.56,0,1.22-0.04,1.99-0.12c0.77-0.08,1.51-0.27,2.22-0.58c0.71-0.3,1.32-0.74,1.82-1.31c0.5-0.57,0.75-1.34,0.75-2.29
		c0-0.61-0.21-1.08-0.61-1.43c-0.41-0.35-0.95-0.62-1.63-0.82c-0.68-0.2-1.45-0.36-2.31-0.47c-0.86-0.12-1.74-0.25-2.64-0.4
		c-0.9-0.15-1.78-0.35-2.64-0.6c-0.86-0.24-1.63-0.6-2.31-1.07c-0.68-0.47-1.22-1.07-1.63-1.8c-0.41-0.74-0.61-1.66-0.61-2.78
		c0-1.54,0.34-2.85,1.03-3.94c0.69-1.08,1.59-1.98,2.71-2.68c1.12-0.7,2.4-1.21,3.83-1.52c1.43-0.32,2.9-0.47,4.39-0.47
		c1.17,0,2.26,0.13,3.29,0.38c1.03,0.26,1.92,0.65,2.69,1.17c0.77,0.52,1.38,1.2,1.82,2.01c0.44,0.82,0.67,1.79,0.67,2.91
		c0,0.26-0.01,0.52-0.04,0.8c-0.02,0.28-0.06,0.57-0.11,0.88H275.71z"/>
</g>
<g id="Outline" class="st2">
	<path class="st3" d="M289.09,55.53c-1.27-2.34-3.03-4.28-5.22-5.78c-1.82-1.24-3.89-2.16-6.17-2.73c-1.88-0.47-3.86-0.71-5.9-0.71
		c-2.27,0-4.52,0.24-6.71,0.72c-0.79,0.17-1.56,0.4-2.32,0.64c-1.18-0.43-2.43-0.67-3.71-0.67h-20.44c-1.38,0-2.72,0.27-3.95,0.76
		c-0.61-0.16-1.22-0.29-1.86-0.4c-1.51-0.24-3.07-0.36-4.63-0.36h-7.65c-0.29-5.23-1.46-9.24-1.61-9.71c0-0.01-0.01-0.02-0.01-0.02
		c-0.05-0.33-0.11-0.65-0.18-0.97c-1.51-6.23-3.98-12.16-7.34-17.61c-0.18-0.29-0.37-0.56-0.57-0.83c-0.16-0.29-0.32-0.57-0.5-0.85
		c-3.55-5.36-7.91-10.09-12.95-14.06c-0.26-0.21-0.53-0.39-0.81-0.57c-0.25-0.22-0.51-0.43-0.77-0.63c-2.56-1.89-5.3-3.59-8.12-5.05
		c-2.83-1.46-5.79-2.71-8.81-3.71c-0.32-0.1-0.64-0.19-0.96-0.27c-0.31-0.12-0.62-0.24-0.94-0.33c-5.56-1.64-11.31-2.48-17.1-2.48
		c-0.62,0-1.24,0.01-1.86,0.03c-0.34,0.01-0.68,0.04-1.02,0.08c-0.09,0-0.18-0.01-0.28-0.01c-0.23,0-0.46,0.01-0.69,0.02
		c-6.39,0.41-12.65,1.81-18.61,4.19c-0.31,0.12-0.62,0.27-0.92,0.42c-0.31,0.1-0.62,0.21-0.92,0.34
		c-8.88,3.87-16.51,9.65-22.53,16.98c-1.25-1.55-2.71-2.93-4.39-4.1c-3.79-2.63-8.41-3.98-13.74-4.01c-0.02,0-0.11,0-0.12,0
		c-3.73,0-7.38,0.75-10.83,2.23c-0.87,0.37-1.71,0.78-2.53,1.23c-2.01-2.06-4.76-3.25-7.67-3.26c0,0-6.47-0.03-6.49-0.03
		c-3.46,0-6.59,1.64-8.58,4.25c-2.01-2.72-5.2-4.36-8.63-4.37c0,0-5.03-0.02-5.04-0.02c-2.33,0-4.5,0.75-6.29,2.02
		c-2.63-1.37-5.55-2.08-8.7-2.09c0,0-14.08-0.06-14.1-0.06c-5.19,0-9.65,3.7-10.61,8.8L-1.18,47c-0.27,1.44-0.23,2.89,0.08,4.29
		c-0.9,1.18-1.56,2.56-1.91,4.08l-5.77,24.99c-0.74,3.21,0.02,6.58,2.07,9.15c2.05,2.58,5.16,4.08,8.45,4.08h4.41
		c1.23,0,2.42-0.21,3.53-0.59c1.11,0.39,2.3,0.59,3.54,0.59h2.8c1.23,0,2.43-0.21,3.55-0.6c1.13,0.39,2.33,0.6,3.55,0.6h4.97
		c2.12,0,4.12-0.62,5.81-1.7c0.53,0.27,1.07,0.54,1.63,0.76c2.55,1.04,5.36,1.57,8.34,1.57c3.61,0,7.13-0.75,10.45-2.23
		c1.06-0.47,2.06-1.02,3.04-1.61c2.02,2.04,4.78,3.21,7.68,3.21h4.9c3.16,0,6.06-1.37,8.05-3.61c1.41,1.07,2.94,1.98,4.64,2.67
		c2.55,1.04,5.36,1.57,8.34,1.57c3.61,0,7.13-0.75,10.45-2.23c0,0,0,0,0,0c1.68,1.03,3.63,1.6,5.65,1.6h4.94
		c2.43,0,4.7-0.81,6.53-2.2c1.85,1.4,4.13,2.2,6.53,2.2h5.11c1.48,0,2.92-0.31,4.23-0.87c0.74,0.28,1.49,0.53,2.28,0.73
		c2.01,0.51,4.11,0.77,6.23,0.77c2.28,0,4.56-0.24,6.78-0.71c0.92-0.19,1.81-0.45,2.68-0.74c1.28,0.52,2.66,0.82,4.08,0.82h5.01
		c5.02,0,9.38-3.46,10.52-8.35L172,85.2h0.63c1.05,0,2.09-0.1,3.12-0.26c0.68,1.07,1.45,2.08,2.33,3.01
		c1.94,2.04,4.28,3.63,6.96,4.72c2.55,1.04,5.36,1.57,8.34,1.57c3.61,0,7.13-0.75,10.45-2.23c0,0,0,0,0,0
		c1.68,1.03,3.63,1.6,5.65,1.6h4.94c2.43,0,4.7-0.81,6.53-2.2c1.85,1.4,4.13,2.2,6.53,2.2h5.11c1.4,0,2.76-0.28,4.01-0.79
		c1.26,0.5,2.61,0.79,4,0.79h4.9c2.95,0,5.67-1.2,7.64-3.18c1.98,1.4,4.22,2.43,6.67,3.05c2.01,0.51,4.11,0.77,6.23,0.77
		c2.28,0,4.56-0.24,6.78-0.71c2.66-0.56,5.13-1.52,7.34-2.84c2.66-1.59,4.84-3.72,6.48-6.33c1.84-2.91,2.77-6.3,2.77-10.06
		c0-1.09-0.08-2.13-0.25-3.13c0.82-1.25,1.38-2.69,1.63-4.25c0.09-0.56,0.15-1.11,0.19-1.63c0.05-0.58,0.07-1.15,0.07-1.71
		C291.06,60.66,290.4,57.95,289.09,55.53z"/>
</g>
</svg>
